<?xml version="1.0" encoding="UTF-8"?><svg version="1.1" viewBox="0 0 16 16" xmlns="http://www.w3.org/2000/svg" xmlns:xlink="http://www.w3.org/1999/xlink"><!--Generated by IJSVG (https://github.com/iconjar/IJSVG)--><path d="M0,1.146c0,-0.633 0.526,-1.146 1.175,-1.146h13.65c0.649,0 1.175,0.513 1.175,1.146v13.708c0,0.633 -0.526,1.146 -1.175,1.146h-13.65c-0.649,0 -1.175,-0.513 -1.175,-1.146v-13.708Zm4.943,12.248v-7.225h-2.401v7.225h2.401Zm-1.2,-8.212c0.837,0 1.358,-0.554 1.358,-1.248c-0.015,-0.709 -0.52,-1.248 -1.342,-1.248c-0.822,0 -1.359,0.54 -1.359,1.248c0,0.694 0.521,1.248 1.327,1.248h0.016Zm4.908,8.212v-4.035c0,-0.216 0.016,-0.432 0.08,-0.586c0.173,-0.431 0.568,-0.878 1.232,-0.878c0.869,0 1.216,0.662 1.216,1.634v3.865h2.401v-4.144c0,-2.22 -1.184,-3.252 -2.764,-3.252c-1.274,0 -1.845,0.7 -2.165,1.193v0.025h-0.016l-2.97039e-08,4.66873e-08c0.005311,-0.00834761 0.0106444,-0.016681 0.016,-0.025v-1.022h-2.4c0.03,0.678 0,7.225 0,7.225h2.4Z" fill="#000"></path></svg>