<?xml version="1.0" encoding="UTF-8"?><svg version="1.1" viewBox="0 0 32 32" xmlns="http://www.w3.org/2000/svg" xmlns:xlink="http://www.w3.org/1999/xlink"><!--Generated by IJSVG (https://github.com/iconjar/IJSVG)--><path d="M5.026,15c6.038,0 9.341,-5.003 9.341,-9.334c0,-0.14 0,-0.282 -0.006,-0.422l2.21467e-07,-1.60321e-07c0.643059,-0.465514 1.19806,-1.04185 1.639,-1.702l-1.46999e-07,6.48141e-08c-0.600686,0.264851 -1.23724,0.439406 -1.889,0.518l1.36827e-07,-8.17859e-08c0.686533,-0.410362 1.20072,-1.05603 1.447,-1.817l3.26063e-08,-1.93169e-08c-0.645012,0.382124 -1.35099,0.650374 -2.087,0.793l6.44399e-09,6.86279e-09c-1.24226,-1.323 -3.32181,-1.38844 -4.64481,-0.146183c-0.85435,0.802214 -1.21679,1.99873 -0.951194,3.14018l-2.69376e-07,-1.35072e-08c-2.63968,-0.13236 -5.0992,-1.37866 -6.767,-3.429l-1.13544e-07,1.96105e-07c-0.868861,1.50064 -0.423416,3.41807 1.018,4.382l1.80067e-07,6.11782e-09c-0.52046,-0.0176828 -1.02948,-0.15744 -1.486,-0.408v0.045l4.41353e-08,3.70753e-05c0.00186774,1.56158 1.10185,2.90643 2.63204,3.21797l2.49869e-09,-6.88345e-10c-0.281737,0.0776138 -0.57277,0.116306 -0.864999,0.115l1.50332e-07,-4.55829e-10c-0.206016,0.000624676 -0.411619,-0.0184622 -0.613999,-0.0569998l1.04234e-07,3.23979e-07c0.430105,1.33685 1.66289,2.25209 3.067,2.277l2.97776e-08,-2.3388e-08c-1.16346,0.913805 -2.60062,1.40941 -4.08004,1.40699l-2.08806e-08,8.81677e-11c-0.260677,0.00110071 -0.521173,-0.0139278 -0.779994,-0.0449993l7.34701e-07,4.68395e-07c1.50151,0.957263 3.24529,1.46555 5.02599,1.465Z" transform="scale(2)" fill="#000"></path></svg>
