<svg width="10" height="10" viewBox="0 0 10 10" fill="none" xmlns="http://www.w3.org/2000/svg">
<path d="M2 6C0.897 6 0 6.897 0 8C0 9.103 0.897 10 2 10V10C3.09995 9.99864 3.99268 9.10993 3.999 8.01H4V7H6V8.0195H6.002V8.0195C6.01323 9.11544 6.904 9.99841 8 10C9.103 10 10 9.103 10 8C10 6.897 9.103 6 8 6H7V4H8C9.103 4 10 3.103 10 2C10 0.897 9.103 0 8 0C6.897 0 6 0.897 6 2V3H4V1.99H3.999V1.99C3.99268 0.890067 3.09994 0.00135715 2 2.14577e-06C0.897 2.14931e-06 0 0.897002 0 2C0 3.103 0.897 4 2 4H3V6H2V6ZM3 8C3 8.561 2.5605 9 2 9C1.4395 9 1 8.561 1 8C1 7.439 1.4395 7 2 7H3V8ZM8 7C8.5605 7 9 7.439 9 8C9 8.561 8.5605 9 8 9C7.4395 9 7 8.561 7 8V7H8ZM7 2C7 1.439 7.4395 0.999998 8 0.999998C8.5605 0.999998 9 1.439 9 2C9 2.561 8.5605 3 8 3H7V2ZM2 3C1.4395 3 1 2.561 1 2C1 1.439 1.4395 0.999998 2 0.999998C2.5605 0.999998 3 1.439 3 2V3H2ZM4 4H6V6H4V4Z" fill="black" fill-opacity="0.5"/>
</svg>
