<svg viewBox="0 0 42 48" fill="none" xmlns="http://www.w3.org/2000/svg">
<path d="M13 12.5L37.5 12C37 9.16667 34 3.5 26 3.5C18 3.5 14 9.5 13 12.5Z" fill="inherit"/>
<path d="M24.0961 47.9523L22.6224 47.918L22.082 47.8642L21.5416 47.8105L20.8293 47.7572L20.1169 47.704L19.6502 47.6571L19.1836 47.6102L18.5695 47.5612L17.9554 47.5122L17.2922 47.416L16.629 47.3197L16.0641 47.2432L15.4991 47.1667L15.057 47.0643L14.6149 46.9619L14.4815 46.9126L14.3481 46.8634L13.9586 46.4577L13.5691 46.0519L13.3013 45.6892L13.0334 45.3264L12.8111 44.9334L12.5888 44.5404L12.41 44.0621L12.2312 43.5838L12.1535 43.2515L12.0759 42.9192L11.9566 42.2315L11.8372 41.5437L11.7646 40.7867L11.6919 40.0296V39.4725V38.9155L10.9673 38.9177L10.2427 38.9198L9.02103 38.9612L7.7994 39.0026L7.63891 38.9583L7.47843 38.914L7.34376 38.8081L7.20909 38.7021L7.11809 38.5018L7.02709 38.3014L7.02701 35.9925L7.02694 33.6836L7.09867 33.0204L7.17041 32.3572L7.17139 31.815L7.17237 31.2729L7.27046 30.2341L7.36854 29.1953L7.46466 28.6884L7.56077 28.1815L7.60992 27.6411L7.65907 27.1007L7.73797 26.7323L7.81687 26.3639L7.88331 25.848L7.94975 25.3322L8.07527 24.6622L8.2008 23.9921L8.42274 23.1147L8.64468 22.2373L8.98951 20.9109L9.33434 19.5845L9.48764 18.9704L9.64095 18.3564L9.91028 17.3984L10.1796 16.4405L10.423 15.7527L10.6665 15.0649L10.9875 14.4036L11.3086 13.7422L11.402 13.5052L11.4954 13.2682V13.2424V13.2167L10.4761 13.2217L9.45671 13.2267L6.4846 13.2014L3.51249 13.176L2.01415 13.1497L0.51582 13.1234L0.359178 13.072L0.20254 13.0206L0.101268 12.8114L0 12.6022L0.000809567 12.4089L0.00161913 12.2156L0.112827 12.0193L0.224039 11.8229L0.44362 11.7L0.663202 11.577L3.58618 11.5863L6.50916 11.5956L9.39589 11.6042L12.2826 11.6128L12.3824 11.5458L12.4822 11.4788L12.7899 10.8401L13.0976 10.2015L13.2035 9.99835L13.3093 9.79522L13.8279 9.13865L14.3465 8.48209L14.7735 7.99083L15.2005 7.49957L15.9443 6.84595L16.688 6.19233L16.9348 6.01081L17.1817 5.8293L17.7159 5.45517L18.2502 5.08104L18.8152 4.73662L19.3801 4.3922L19.9333 4.1153L20.4864 3.83839L20.8545 3.71823L21.2226 3.59807L21.7014 3.41797L22.1803 3.23787L22.7207 3.10173L23.261 2.9656L23.7769 2.81622L24.2927 2.66685L24.6611 2.59275L25.0296 2.51865L25.6436 2.43752L26.2577 2.35639L26.6507 2.38571L27.0437 2.41504L27.6087 2.51296L28.1736 2.61088L28.7627 2.68808L29.3518 2.76527L29.6961 2.83679L30.0404 2.90832L30.5071 3.06114L30.9738 3.21396L31.8581 3.65538L32.7423 4.0968L33.1599 4.36806L33.5775 4.63932L34.0196 4.96781L34.4617 5.2963L34.8793 5.65471L35.2969 6.01312L35.8285 6.57886L36.3602 7.14461L36.7415 7.71509L37.1229 8.28558L37.8217 9.48076L38.5204 10.6759L38.9132 11.5682L39.306 12.4604L39.6447 13.4679L39.9835 14.4754L40.0865 14.9667L40.1895 15.4579L40.3085 15.9001L40.4274 16.3422L40.5311 17.03L40.6348 17.7177L40.7039 18.0173L40.773 18.3168L40.9476 19.5402L41.1222 20.7635L41.1673 21.4022L41.2124 22.0408L41.2592 23.097L41.3061 24.1532L41.2904 28.1569L41.2746 32.1607L41.2239 32.5537L41.1732 32.9467L41.1385 33.831L41.1039 34.7152L41.1234 37.8347L41.1428 40.9542L41.1303 44L41.1177 47.0458L40.9822 47.2399L40.8467 47.4341L40.6788 47.5321L40.5109 47.6302L39.6233 47.668L38.7357 47.7057L37.2373 47.7602L35.739 47.8147L33.6511 47.8598L31.5633 47.9049L29.6228 47.9524L27.6824 48L26.6262 47.9933L25.57 47.9866L24.0961 47.9523ZM30.3351 46.3312L31.6615 46.2929L33.3809 46.2612L35.1003 46.2296L36.1811 46.1815L37.2618 46.1334L38.3794 46.1031L39.4971 46.0728L39.5069 45.4294L39.5168 44.786L39.5215 38.9155L39.5263 33.045L39.6095 32.4309L39.6926 31.8168L39.6934 27.8006L39.6941 23.7845L39.6188 22.4287L39.5435 21.0729L39.3711 19.862L39.1987 18.6511L39.1309 18.3564L39.063 18.0616L38.9557 17.352L38.8484 16.6423L38.7793 16.394L38.7102 16.1457L38.561 15.4825L38.4118 14.8193L38.1208 13.9719L37.8299 13.1246L37.7576 12.9848L37.6854 12.8451L36.3552 12.8106L35.0251 12.7761L34.9893 12.7976L34.9535 12.8192L28.5182 12.8513L22.0829 12.8833L22.0488 12.9179L22.0147 12.9525L22.0621 14.5246L22.1095 16.0966L22.1291 16.1948L22.1487 16.2931L22.1524 17.2831L22.1562 18.273L22.4632 18.3079L22.7703 18.3427L23.2269 18.4605L23.6836 18.5783L23.9884 18.731L24.2932 18.8838L24.5879 19.0936L24.8827 19.3034L25.2064 19.6404L25.5301 19.9775L25.6695 20.1986L25.8089 20.4196L25.8985 20.7065L25.988 20.9933V21.2037V21.414L26.0833 21.973L26.1785 22.5321L26.1938 23.7848L26.2091 25.0375L26.1082 25.2092L26.0073 25.381L25.843 25.4917L25.6787 25.6024H25.4339H25.189L25.0221 25.4992L24.8551 25.396L24.7522 25.1944L24.6494 24.9929L24.6088 24.3274L24.5682 23.6619L24.564 23.097L24.5599 22.5321L24.4897 22.2127L24.4194 21.8934L24.4174 21.6478L24.4155 21.4022L24.3625 21.2114L24.3096 21.0207L24.0848 20.7805L23.8601 20.5402L23.5667 20.3443L23.2733 20.1484L22.9481 20.0511L22.6229 19.9539L21.9243 19.8569L21.2258 19.7599L21.0401 19.6652L20.8544 19.5704L20.7718 19.4791L20.6893 19.3878L20.6266 19.2405L20.5639 19.0932L20.5288 17.3984L20.4937 15.7036L20.4631 14.4509L20.4325 13.1982L20.4065 13.0314L20.3806 12.8646L19.635 12.8988L18.8894 12.9329L18.177 13.0007L17.4647 13.0684L16.605 13.0957L15.7453 13.1231L14.5663 13.1542L13.3873 13.1854L13.3492 13.2077L13.3111 13.23L13.1393 13.5712L12.9676 13.9123L12.8683 14.1693L12.769 14.4263L12.4548 15.0649L12.1407 15.7036L11.9154 16.3614L11.6902 17.0193L11.4939 17.6755L11.2976 18.3316L11.1589 18.9335L11.0203 19.5354L10.7936 20.3705L10.5669 21.2057L10.4164 21.7952L10.2658 22.3847L10.0018 23.4409L9.73773 24.4971L9.70648 24.6776L9.67523 24.8581L9.95079 24.8925L10.2264 24.9269H10.3452H10.464L10.5378 24.8656L10.6117 24.8044L10.612 24.2823L10.6123 23.7602L10.6846 23.28L10.757 22.7998L10.838 22.5186L10.919 22.2373L11.0328 22.011L11.1466 21.7846L11.2736 21.6337L11.4005 21.4829L11.7553 21.2483L12.11 21.0137L12.4048 20.8892L12.6995 20.7646L13.3627 20.7641L14.0259 20.7636L14.3094 20.9027L14.5929 21.0418L14.9972 21.4263L15.4014 21.8108L15.6668 22.2355L15.9322 22.6602L16.093 23.1365L16.2538 23.6128L16.333 24.1532L16.4123 24.6936L16.4595 25.5716L16.5068 26.4495L16.4586 26.7506L16.4105 27.0517L16.2087 27.6638L16.0069 28.276L15.906 28.4744L15.8052 28.6728L15.6204 28.943L15.4356 29.2132L15.2466 29.3897L15.0576 29.5662L14.7516 29.7971L14.4456 30.0279L14.2603 30.1063L14.075 30.1847L13.6575 30.1855L13.2399 30.1862L12.7546 30.0826L12.2692 29.9789L11.9937 29.8171L11.7183 29.6553L11.4447 29.3851L11.1712 29.1149L11.0639 28.8916L10.9565 28.6683L10.8074 27.9337L10.6583 27.199L10.6227 26.8797L10.5871 26.5604L10.0318 26.518L9.47654 26.4756L9.44871 26.5034L9.42089 26.5312L9.33234 26.9634L9.24379 27.3955L9.19093 27.9605L9.13806 28.5254L9.04293 29.0167L8.94779 29.5079L8.87148 30.4659L8.79517 31.4238L8.74244 32.3818L8.68971 33.3397L8.6458 33.8556L8.60189 34.3714L8.60775 35.4522L8.61361 36.5329L8.6353 36.9376L8.657 37.3423L10.7274 37.3306L12.7978 37.3189L12.9518 37.4122L13.1058 37.5054L13.1951 37.6824L13.2844 37.8593L13.3182 39.3085L13.3521 40.7577L13.4298 41.2736L13.5076 41.7894L13.6098 42.3537L13.712 42.918L13.8323 43.2764L13.9526 43.6348L14.1309 43.9894L14.3092 44.3439L14.5194 44.6387L14.7296 44.9334L14.9182 45.1225L15.1067 45.3117L15.3405 45.4306L15.5743 45.5496L16.2739 45.6472L16.9735 45.7448L17.4647 45.8188L17.956 45.8927L18.4718 45.9399L18.9876 45.987L20.1175 46.0838L21.2474 46.1806L21.9352 46.2397L22.6229 46.2988L23.8265 46.3319L25.0301 46.365L27.0197 46.3673L29.0093 46.3696L30.3357 46.3312L30.3351 46.3312ZM28.6016 27.7571L28.4401 27.6537L28.3682 27.5148L28.2964 27.3758L28.2984 27.2628L28.3005 27.1499L28.387 26.9877L28.4735 26.8254L29.3306 25.9368L30.1877 25.0481L30.3009 24.8819L30.414 24.7157L30.5632 24.3853L30.7125 24.0549L30.8304 23.5391L30.9483 23.0233V22.704V22.3847L30.8794 21.9671L30.8106 21.5495L30.7583 21.4151L30.7059 21.2806L30.4844 20.9484L30.2628 20.6161L29.9057 20.3076L29.5486 19.999L29.1512 19.8082L28.7538 19.6175L28.6244 19.4637L28.495 19.3098L28.4465 19.1279L28.398 18.9459L28.4402 18.7605L28.4825 18.5752L28.5616 18.4545L28.6407 18.3338L28.7753 18.2657L28.9099 18.1976L29.0914 18.1647L29.2728 18.1319L29.6563 18.2802L30.0398 18.4285L30.3369 18.6231L30.6339 18.8176L31.061 19.1921L31.4881 19.5665L31.8046 20.0422L32.121 20.5179L32.2269 20.7635L32.3329 21.0092L32.4257 21.4841L32.5185 21.9591L32.5493 22.4912L32.5802 23.0233L32.4501 23.6588L32.3199 24.2944L32.1264 24.7887L31.933 25.2831L31.7478 25.6012L31.5627 25.9193L31.1943 26.2928L30.8258 26.6662L30.4328 26.959L30.0398 27.2518L29.7326 27.4464L29.4254 27.6411L29.2414 27.7509L29.0573 27.8606L28.9099 27.8606L28.7626 27.8605L28.6011 27.7571H28.6016ZM13.9059 28.42L14.1551 28.241L14.3246 27.9902L14.494 27.7394L14.6954 27.1253L14.8968 26.5112L14.8688 25.7744L14.8408 25.0375L14.7597 24.4971L14.6787 23.9567L14.5667 23.6335L14.4548 23.3104L14.3219 23.0998L14.189 22.8893L13.9869 22.6701L13.7848 22.4508L13.6394 22.3756L13.4939 22.3004L13.2438 22.3332L12.9937 22.3661L12.7972 22.4817L12.6007 22.5974L12.4374 22.7673L12.274 22.9373L12.1549 23.4067L12.0357 23.876L11.9874 24.3339L11.9392 24.7918L11.939 25.5533L11.9388 26.3147L12.0311 26.8306L12.1235 27.3464L12.2212 27.6229L12.3189 27.8994L12.4352 28.0703L12.5515 28.2412L12.711 28.3752L12.8704 28.5092L13.0057 28.5499L13.141 28.5906L13.3988 28.5949L13.6566 28.5991L13.9059 28.42L13.9059 28.42ZM17.3659 11.4526L17.9554 11.4075L18.5695 11.3538L19.1836 11.3001L21.5416 11.2832L23.8996 11.2663L30.4088 11.2322L36.9179 11.1982L36.9344 11.1828L36.9509 11.1674L36.5627 10.5125L36.1744 9.85761L36.0096 9.56285L35.8447 9.2681L35.414 8.62946L34.9833 7.99083L34.4523 7.46846L33.9213 6.94609L33.7002 6.75132L33.4791 6.55655L33.0124 6.21653L32.5458 5.87651L32.2264 5.67598L31.9071 5.47545L31.1209 5.07881L30.3346 4.68217L29.8191 4.53242L29.3035 4.38267L28.5666 4.28276L27.8297 4.18284L27.2893 4.09331L26.7489 4.00377L26.3068 4.03959L25.8646 4.0754L25.3488 4.12794L24.833 4.18047L24.3172 4.33185L23.8014 4.48323L23.2176 4.62998L22.6338 4.77673L22.1859 4.951L21.7381 5.12526L21.4188 5.22511L21.0995 5.32496L20.6082 5.57145L20.1169 5.81793L19.552 6.1715L18.987 6.52508L18.3619 6.96615L17.7367 7.40722L17.0653 7.99378L16.394 8.58034L16.0078 9.01625L15.6215 9.45217L15.3515 9.80226L15.0815 10.1524L14.8826 10.398L14.6838 10.6436L14.4651 11.0725L14.2464 11.5014V11.5276V11.5538L15.5114 11.5257L16.7764 11.4977L17.3659 11.4526ZM25.2336 1.55739L25.0448 1.49004L24.9219 1.37532L24.7991 1.2606L24.7301 1.12795L24.6611 0.995289V0.789863V0.584438L24.7618 0.421457L24.8625 0.258476L25.0381 0.14998L25.2136 0.0414842L25.6865 0.0207421L26.1594 0L26.3559 0.0698119L26.5524 0.139624L26.7172 0.35451L26.882 0.569396L26.861 0.860507L26.8399 1.15162L26.6429 1.33539L26.4459 1.51916L26.1897 1.5741L25.9335 1.62904L25.678 1.62689L25.4225 1.62473L25.2336 1.55739Z" fill="inherit"/>
</svg>
